#Comment line ignore any data following # character 
#Hierarchical Translation and Rotation (.htr) file 
[Header]	
#Header keywords are followed by a single value 
FileType HTR		#Single word string
DataType HTRS		#Translation followed by rotation and scale data
FileVersion 1		#integer
NumSegments 84		#integer
NumFrames 2		#integer
DataFrameRate 30		#integer, data frame rate in this file
EulerRotationOrder ZYX
CalibrationUnits mm
RotationUnits Degrees
GlobalAxisofGravity Y
BoneLengthAxis Y
ScaleFactor 1.00
[SegmentNames&Hierarchy]
#CHILD	PARENT
MASTER GLOBAL
root MASTER
chest root
L_mid_tent01 root
R_mid_tent01 root
spine01 root
Bip01_Neck chest
L_humerus chest
R_humerus chest
weapon_bone chest
Bip01_Head Bip01_Neck
eye_left_bone Bip01_Head
eye_right_bone Bip01_Head
L_forearm L_humerus
L_front_hand L_forearm
L_weapon_bone L_forearm
L_front_hand01_01 L_front_hand
L_front_hand02_01 L_front_hand
L_front_hand03_01 L_front_hand
L_front_hand01_02 L_front_hand01_01
L_front_hand02_02 L_front_hand02_01
L_front_hand03_02 L_front_hand03_01
R_forearm R_humerus
R_front_hand R_forearm
R_weapon_bone R_forearm
R_front_hand01_01 R_front_hand
R_front_hand02_01 R_front_hand
R_front_hand03_01 R_front_hand
R_front_hand01_02 R_front_hand01_01
R_front_hand02_02 R_front_hand02_01
R_front_hand03_02 R_front_hand03_01
null_rope01_connect L_mid_tent01
Rope1_Seg01 null_rope01_connect
Rope1_Seg02 Rope1_Seg01
Rope1_Seg03 Rope1_Seg02
Rope1_Seg04 Rope1_Seg03
Rope1_Seg05 Rope1_Seg04
Rope1_Seg06 Rope1_Seg05
Rope1_Seg07 Rope1_Seg06
Rope1_Seg09 Rope1_Seg07
L_mid_hand01 Rope1_Seg09
L_mid_hand02 Rope1_Seg09
L_mid_hand03 Rope1_Seg09
null_rope02_connect R_mid_tent01
Rope2_Seg01 null_rope02_connect
Rope2_Seg02 Rope2_Seg01
Rope2_Seg03 Rope2_Seg02
Rope2_Seg04 Rope2_Seg03
Rope2_Seg05 Rope2_Seg04
Rope2_Seg06 Rope2_Seg05
Rope2_Seg07 Rope2_Seg06
Rope2_Seg09 Rope2_Seg07
R_mid_hand01 Rope2_Seg09
R_mid_hand02 Rope2_Seg09
R_mid_hand03 Rope2_Seg09
spine02 spine01
spine03 spine02
pelvis spine03
null_rope03_connect pelvis
null_rope04_connect pelvis
Rope3_Seg01 null_rope03_connect
Rope3_Seg02 Rope3_Seg01
Rope3_Seg03 Rope3_Seg02
Rope3_Seg04 Rope3_Seg03
Rope3_Seg05 Rope3_Seg04
Rope3_Seg06 Rope3_Seg05
Rope3_Seg07 Rope3_Seg06
Rope3_Seg08 Rope3_Seg07
Rope3_Seg09 Rope3_Seg08
R_rear_hand01 Rope3_Seg09
R_rear_hand02 Rope3_Seg09
R_rear_hand03 Rope3_Seg09
Rope4_Seg01 null_rope04_connect
Rope4_Seg02 Rope4_Seg01
Rope4_Seg03 Rope4_Seg02
Rope4_Seg04 Rope4_Seg03
Rope4_Seg05 Rope4_Seg04
Rope4_Seg06 Rope4_Seg05
Rope4_Seg07 Rope4_Seg06
Rope4_Seg08 Rope4_Seg07
Rope4_Seg09 Rope4_Seg08
L_rear_hand01 Rope4_Seg09
L_rear_hand02 Rope4_Seg09
L_rear_hand03 Rope4_Seg09
[BasePosition]
#SegmentName Tx, Ty, Tz, Rx, Ry, Rz, BoneLength
MASTER 0.000000 0.000000 0.000000 -90.000000 0.000000 0.000000 10.000000 
root 0.000000 0.000000 0.000000 0.000000 0.000000 0.000000 10.000000 
chest 0.000000 0.000000 0.000000 0.000000 0.000000 0.000000 10.000000 
L_mid_tent01 0.000000 0.000000 0.000000 0.000000 0.000000 0.000000 10.000000 
R_mid_tent01 0.000000 0.000000 0.000000 0.000000 0.000000 0.000000 10.000000 
spine01 0.000000 0.000000 0.000000 0.000000 0.000000 0.000000 10.000000 
Bip01_Neck 0.000000 0.000000 0.000000 0.000000 0.000000 0.000000 10.000000 
L_humerus 0.000000 0.000000 0.000000 0.000000 0.000000 0.000000 10.000000 
R_humerus 0.000000 0.000000 0.000000 0.000000 0.000000 0.000000 10.000000 
weapon_bone 0.000000 0.000000 0.000000 0.000000 0.000000 0.000000 10.000000 
Bip01_Head 0.000000 0.000000 0.000000 0.000000 0.000000 0.000000 10.000000 
eye_left_bone 0.000000 0.000000 0.000000 0.000000 0.000000 0.000000 10.000000 
eye_right_bone 0.000000 0.000000 0.000000 0.000000 0.000000 0.000000 10.000000 
L_forearm 0.000000 0.000000 0.000000 0.000000 0.000000 0.000000 10.000000 
L_front_hand 0.000000 0.000000 0.000000 0.000000 0.000000 0.000000 10.000000 
L_weapon_bone 0.000000 0.000000 0.000000 0.000000 0.000000 0.000000 10.000000 
L_front_hand01_01 0.000000 0.000000 0.000000 0.000000 0.000000 0.000000 10.000000 
L_front_hand02_01 0.000000 0.000000 0.000000 0.000000 0.000000 0.000000 10.000000 
L_front_hand03_01 0.000000 0.000000 0.000000 0.000000 0.000000 0.000000 10.000000 
L_front_hand01_02 0.000000 0.000000 0.000000 0.000000 0.000000 0.000000 10.000000 
L_front_hand02_02 0.000000 0.000000 0.000000 0.000000 0.000000 0.000000 10.000000 
L_front_hand03_02 0.000000 0.000000 0.000000 0.000000 0.000000 0.000000 10.000000 
R_forearm 0.000000 0.000000 0.000000 0.000000 0.000000 0.000000 10.000000 
R_front_hand 0.000000 0.000000 0.000000 0.000000 0.000000 0.000000 10.000000 
R_weapon_bone 0.000000 0.000000 0.000000 0.000000 0.000000 0.000000 10.000000 
R_front_hand01_01 0.000000 0.000000 0.000000 0.000000 0.000000 0.000000 10.000000 
R_front_hand02_01 0.000000 0.000000 0.000000 0.000000 0.000000 0.000000 10.000000 
R_front_hand03_01 0.000000 0.000000 0.000000 0.000000 0.000000 0.000000 10.000000 
R_front_hand01_02 0.000000 0.000000 0.000000 0.000000 0.000000 0.000000 10.000000 
R_front_hand02_02 0.000000 0.000000 0.000000 0.000000 0.000000 0.000000 10.000000 
R_front_hand03_02 0.000000 0.000000 0.000000 0.000000 0.000000 0.000000 10.000000 
null_rope01_connect 0.000000 0.000000 0.000000 0.000000 0.000000 0.000000 10.000000 
Rope1_Seg01 0.000000 0.000000 0.000000 0.000000 0.000000 0.000000 10.000000 
Rope1_Seg02 0.000000 0.000000 0.000000 0.000000 0.000000 0.000000 10.000000 
Rope1_Seg03 0.000000 0.000000 0.000000 0.000000 0.000000 0.000000 10.000000 
Rope1_Seg04 0.000000 0.000000 0.000000 0.000000 0.000000 0.000000 10.000000 
Rope1_Seg05 0.000000 0.000000 0.000000 0.000000 0.000000 0.000000 10.000000 
Rope1_Seg06 0.000000 0.000000 0.000000 0.000000 0.000000 0.000000 10.000000 
Rope1_Seg07 0.000000 0.000000 0.000000 0.000000 0.000000 0.000000 10.000000 
Rope1_Seg09 0.000000 0.000000 0.000000 0.000000 0.000000 0.000000 10.000000 
L_mid_hand01 0.000000 0.000000 0.000000 0.000000 0.000000 0.000000 10.000000 
L_mid_hand02 0.000000 0.000000 0.000000 0.000000 0.000000 0.000000 10.000000 
L_mid_hand03 0.000000 0.000000 0.000000 0.000000 0.000000 0.000000 10.000000 
null_rope02_connect 0.000000 0.000000 0.000000 0.000000 0.000000 0.000000 10.000000 
Rope2_Seg01 0.000000 0.000000 0.000000 0.000000 0.000000 0.000000 10.000000 
Rope2_Seg02 0.000000 0.000000 0.000000 0.000000 0.000000 0.000000 10.000000 
Rope2_Seg03 0.000000 0.000000 0.000000 0.000000 0.000000 0.000000 10.000000 
Rope2_Seg04 0.000000 0.000000 0.000000 0.000000 0.000000 0.000000 10.000000 
Rope2_Seg05 0.000000 0.000000 0.000000 0.000000 0.000000 0.000000 10.000000 
Rope2_Seg06 0.000000 0.000000 0.000000 0.000000 0.000000 0.000000 10.000000 
Rope2_Seg07 0.000000 0.000000 0.000000 0.000000 0.000000 0.000000 10.000000 
Rope2_Seg09 0.000000 0.000000 0.000000 0.000000 0.000000 0.000000 10.000000 
R_mid_hand01 0.000000 0.000000 0.000000 0.000000 0.000000 0.000000 10.000000 
R_mid_hand02 0.000000 0.000000 0.000000 0.000000 0.000000 0.000000 10.000000 
R_mid_hand03 0.000000 0.000000 0.000000 0.000000 0.000000 0.000000 10.000000 
spine02 0.000000 0.000000 0.000000 0.000000 0.000000 0.000000 10.000000 
spine03 0.000000 0.000000 0.000000 0.000000 0.000000 0.000000 10.000000 
pelvis 0.000000 0.000000 0.000000 0.000000 0.000000 0.000000 10.000000 
null_rope03_connect 0.000000 0.000000 0.000000 0.000000 0.000000 0.000000 10.000000 
null_rope04_connect 0.000000 0.000000 0.000000 0.000000 0.000000 0.000000 10.000000 
Rope3_Seg01 0.000000 0.000000 0.000000 0.000000 0.000000 0.000000 10.000000 
Rope3_Seg02 0.000000 0.000000 0.000000 0.000000 0.000000 0.000000 10.000000 
Rope3_Seg03 0.000000 0.000000 0.000000 0.000000 0.000000 0.000000 10.000000 
Rope3_Seg04 0.000000 0.000000 0.000000 0.000000 0.000000 0.000000 10.000000 
Rope3_Seg05 0.000000 0.000000 0.000000 0.000000 0.000000 0.000000 10.000000 
Rope3_Seg06 0.000000 0.000000 0.000000 0.000000 0.000000 0.000000 10.000000 
Rope3_Seg07 0.000000 0.000000 0.000000 0.000000 0.000000 0.000000 10.000000 
Rope3_Seg08 0.000000 0.000000 0.000000 0.000000 0.000000 0.000000 10.000000 
Rope3_Seg09 0.000000 0.000000 0.000000 0.000000 0.000000 0.000000 10.000000 
R_rear_hand01 0.000000 0.000000 0.000000 0.000000 0.000000 0.000000 10.000000 
R_rear_hand02 0.000000 0.000000 0.000000 0.000000 0.000000 0.000000 10.000000 
R_rear_hand03 0.000000 0.000000 0.000000 0.000000 0.000000 0.000000 10.000000 
Rope4_Seg01 0.000000 0.000000 0.000000 0.000000 0.000000 0.000000 10.000000 
Rope4_Seg02 0.000000 0.000000 0.000000 0.000000 0.000000 0.000000 10.000000 
Rope4_Seg03 0.000000 0.000000 0.000000 0.000000 0.000000 0.000000 10.000000 
Rope4_Seg04 0.000000 0.000000 0.000000 0.000000 0.000000 0.000000 10.000000 
Rope4_Seg05 0.000000 0.000000 0.000000 0.000000 0.000000 0.000000 10.000000 
Rope4_Seg06 0.000000 0.000000 0.000000 0.000000 0.000000 0.000000 10.000000 
Rope4_Seg07 0.000000 0.000000 0.000000 0.000000 0.000000 0.000000 10.000000 
Rope4_Seg08 0.000000 0.000000 0.000000 0.000000 0.000000 0.000000 10.000000 
Rope4_Seg09 0.000000 0.000000 0.000000 0.000000 0.000000 0.000000 10.000000 
L_rear_hand01 0.000000 0.000000 0.000000 0.000000 0.000000 0.000000 10.000000 
L_rear_hand02 0.000000 0.000000 0.000000 0.000000 0.000000 0.000000 10.000000 
L_rear_hand03 0.000000 0.000000 0.000000 0.000000 0.000000 0.000000 10.000000 
#Beginning of Data. Separated by tabs
#Fr	Tx	Ty	Tz	Rx	Ry	Rz	SF
[MASTER]
14 0.000000 0.000000 0.000000 0.001660 0.001660 0.001660 0.000000
15 0.000000 0.000000 0.000000 0.001660 0.001660 0.001660 0.000000
[root]
14 -18.959959 -99.087852 1177.408936 -88.272423 -45.747711 -90.676186 1181.723145
15 -19.456463 -87.832069 1187.895020 -88.523735 -45.174683 -90.583496 1191.296631
[chest]
14 -84.512650 -34.090519 0.000000 2.254662 -2.019270 -123.788574 91.129311
15 -84.512650 -34.090519 0.000000 2.217847 -2.035184 -124.499733 91.129311
[L_mid_tent01]
14 27.398590 22.120771 -250.552811 -17.958805 -9.776707 79.818726 253.015244
15 27.398651 22.120747 -250.553040 -17.354115 -10.353089 75.218460 253.015488
[R_mid_tent01]
14 23.228794 24.509907 226.238495 -170.862137 5.775652 76.921097 228.744751
15 23.228794 24.509907 226.238495 -170.816010 5.789587 73.156319 228.744751
[spine01]
14 -0.361383 -0.195265 0.000000 0.001942 0.001319 21.643850 0.410763
15 -0.361383 -0.195265 0.000000 0.001941 0.001320 21.538145 0.410763
[Bip01_Neck]
14 165.484543 71.581718 0.000119 175.896118 1.177290 24.871183 180.302734
15 165.484543 71.581718 0.000119 175.896118 1.177290 24.871185 180.302734
[L_humerus]
14 -13.983130 -135.272980 -120.471481 -91.668320 0.804970 -167.458160 181.680161
15 -13.983130 -135.272980 -120.471481 -90.770317 0.865931 -159.155212 181.680161
[R_humerus]
14 -13.983309 -135.273102 125.287651 103.000740 1.729733 -169.272232 184.909012
15 -13.983309 -135.273102 125.287651 103.000732 1.729702 -169.271973 184.909012
[weapon_bone]
14 235.964890 -300.705902 0.000000 0.000000 -89.951546 -128.212341 382.234833
15 235.964890 -300.705902 0.000000 0.000000 -89.951546 -128.212341 382.234833
[Bip01_Head]
14 102.819801 23.735506 5.410329 3.150731 3.423701 -20.839088 105.662468
15 102.819794 23.735512 5.410324 3.150731 3.423701 -20.839088 105.662468
[eye_left_bone]
14 -24.626970 125.451866 -64.772606 0.000000 -90.000000 -99.840431 143.318359
15 -24.626970 125.451866 -64.772606 0.000000 -90.000000 -99.840431 143.318359
[eye_right_bone]
14 -24.626970 125.451866 64.327362 0.000000 -89.960434 80.159386 143.117676
15 -24.626970 125.451866 64.327362 0.000000 -89.960434 80.159386 143.117676
[L_forearm]
14 322.776093 0.000000 -0.000119 0.000037 0.002347 -88.195610 322.776093
15 322.776093 0.000000 -0.000119 0.000042 0.002347 -87.934486 322.776093
[L_front_hand]
14 241.149185 -0.042021 -3.300071 -177.734283 -0.120814 -78.360374 241.171753
15 241.149185 -0.042021 -3.300071 -177.732208 -0.091834 -79.121262 241.171753
[L_weapon_bone]
14 156.183838 0.000000 0.000000 0.002125 0.000996 39.756557 156.183838
15 156.183838 0.000000 0.000000 0.002123 0.001000 39.541004 156.183838
[L_front_hand01_01]
14 86.095154 20.947098 -0.655860 0.405585 -0.442306 -4.620490 88.609184
15 86.095154 20.947098 -0.655860 0.405585 -0.442306 -4.620490 88.609184
[L_front_hand02_01]
14 86.935165 -11.437475 24.513514 116.959450 3.630817 1.495452 91.046425
15 86.935165 -11.437475 24.513514 116.959450 3.630818 1.495453 91.046425
[L_front_hand03_01]
14 86.637497 -14.123976 -20.424902 -118.420097 -4.656303 -0.152527 90.126129
15 86.637497 -14.123976 -20.424902 -118.420097 -4.656303 -0.152527 90.126129
[L_front_hand01_02]
14 71.020905 -0.000179 0.000030 0.001534 0.001777 -8.378850 71.020905
15 71.020905 -0.000179 0.000030 0.001534 0.001777 -8.378851 71.020905
[L_front_hand02_02]
14 71.020927 -0.000119 0.000060 0.001534 0.001777 -8.378850 71.020927
15 71.020927 -0.000119 0.000060 0.001534 0.001777 -8.378851 71.020927
[L_front_hand03_02]
14 71.020905 -0.000060 0.000060 0.001534 0.001777 -8.378850 71.020905
15 71.020905 -0.000060 0.000060 0.001534 0.001777 -8.378851 71.020905
[R_forearm]
14 322.776428 -0.000060 0.000030 0.209841 -0.000994 -90.738808 322.776428
15 322.776428 -0.000060 0.000030 0.213334 -0.005571 -90.146584 322.776428
[R_front_hand]
14 238.847015 -0.006795 2.210259 -1.699675 -0.305097 -88.813904 238.857239
15 238.847015 -0.006795 2.210259 -1.699934 -0.304778 -88.809456 238.857239
[R_weapon_bone]
14 155.664093 0.002503 -0.000030 0.002754 0.002442 -136.745636 155.664078
15 155.664093 0.002503 -0.000030 0.002772 0.002421 -135.866440 155.664078
[R_front_hand01_01]
14 87.624611 14.231146 22.918642 -116.960213 3.496675 -1.324139 91.683487
15 87.624611 14.231146 22.918642 -116.960213 3.496675 -1.324139 91.683487
[R_front_hand02_01]
14 89.356956 14.367283 -19.491137 118.419647 -4.257089 0.609827 92.579636
15 89.356956 14.367283 -19.491137 118.419632 -4.257088 0.609827 92.579636
[R_front_hand03_01]
14 87.286232 -22.307278 -0.143439 -0.387970 -0.231462 4.232001 90.091743
15 87.286232 -22.307278 -0.143439 -0.387970 -0.231462 4.232001 90.091743
[R_front_hand01_02]
14 71.020905 0.000060 0.000119 0.001777 0.001534 8.377220 71.020905
15 71.020905 0.000060 0.000119 0.001777 0.001534 8.377221 71.020905
[R_front_hand02_02]
14 71.020844 -0.000030 -0.000119 0.001777 0.001534 8.377220 71.020836
15 71.020844 -0.000030 -0.000119 0.001777 0.001534 8.377221 71.020836
[R_front_hand03_02]
14 71.020905 0.000000 0.000030 0.001777 0.001534 8.377220 71.020905
15 71.020905 0.000000 0.000030 0.001777 0.001534 8.377221 71.020905
[null_rope01_connect]
14 328.732483 0.000000 -0.000238 114.705254 -69.665421 -56.992538 328.732483
15 328.732483 0.000000 -0.000238 116.957809 -69.959732 -55.207535 328.732483
[Rope1_Seg01]
14 0.000000 0.000000 0.000000 121.343178 21.501675 172.983566 0.000000
15 0.000000 0.000000 0.000000 121.860359 21.495489 175.442612 0.000000
[Rope1_Seg02]
14 139.999863 -0.000179 0.000000 -0.499554 -12.557664 11.244534 139.999863
15 139.999863 -0.000179 0.000000 0.464109 -10.509647 7.842195 139.999863
[Rope1_Seg03]
14 139.999924 0.000060 -0.000060 -12.727214 -39.014709 27.329018 139.999924
15 139.999924 0.000060 -0.000060 -6.539689 -34.911987 20.356724 139.999924
[Rope1_Seg04]
14 139.999924 -0.000060 -0.000119 5.944143 -20.322475 33.966259 139.999924
15 139.999924 -0.000060 -0.000119 -14.823539 -30.219326 31.409960 139.999924
[Rope1_Seg05]
14 139.999832 0.000119 -0.000060 95.628548 15.305278 45.419014 139.999832
15 139.999832 0.000119 -0.000060 103.560066 0.313451 52.739452 139.999832
[Rope1_Seg06]
14 139.999954 0.000119 -0.000060 6.694953 13.079625 -2.591325 139.999954
15 139.999954 0.000119 -0.000060 10.525310 16.443195 -2.096764 139.999954
[Rope1_Seg07]
14 139.999985 0.000060 0.000000 1.918790 5.469704 -1.748899 139.999985
15 139.999985 0.000060 0.000000 2.505125 5.992482 -1.665434 139.999985
[Rope1_Seg09]
14 121.602913 0.000119 -0.000089 -89.793175 -1.359789 0.847147 121.602913
15 121.602913 0.000119 -0.000089 -89.793175 -1.359789 0.847147 121.602913
[L_mid_hand01]
14 103.859421 1.038730 8.195221 104.352043 0.341479 -0.444583 104.187431
15 103.859421 1.038730 8.195221 104.352036 0.341479 -0.444584 104.187431
[L_mid_hand02]
14 105.572853 -4.139662 -10.864139 -135.608444 3.905687 -3.381056 106.211075
15 105.572853 -4.139662 -10.864139 -135.608444 3.905687 -3.381056 106.211075
[L_mid_hand03]
14 104.641464 17.579376 -3.913581 -18.761515 -0.324361 2.942912 106.179977
15 104.641464 17.579376 -3.913581 -18.761518 -0.324361 2.942912 106.179977
[null_rope02_connect]
14 328.732849 0.000179 -0.000119 123.704262 79.079063 -115.453705 328.732849
15 328.732849 0.000179 -0.000119 125.897774 78.975342 -116.479507 328.732849
[Rope2_Seg01]
14 0.000076 0.000110 0.000153 -61.383690 23.518503 7.977901 0.000203
15 0.000076 0.000110 0.000153 -60.762970 22.086555 5.600079 0.000203
[Rope2_Seg02]
14 139.999741 -0.000060 -0.000119 -0.274908 -10.997640 4.729717 139.999756
15 139.999741 -0.000060 -0.000119 -1.178802 -8.366013 4.939387 139.999756
[Rope2_Seg03]
14 140.000107 0.000030 0.000000 -7.503243 -28.583763 22.923384 140.000107
15 140.000107 0.000030 0.000000 -6.618632 -21.622181 19.509323 140.000107
[Rope2_Seg04]
14 139.999802 0.000000 -0.000060 -11.447437 -45.752991 2.619239 139.999802
15 139.999802 0.000000 -0.000060 -9.160048 -42.123878 22.708633 139.999802
[Rope2_Seg05]
14 139.999985 -0.000060 0.000119 -34.047539 -24.587362 -38.054626 139.999985
15 139.999985 -0.000060 0.000119 -35.674965 -38.235649 -40.114380 139.999985
[Rope2_Seg06]
14 139.999893 -0.000030 -0.000119 -7.670799 -0.923432 -11.530708 139.999893
15 139.999893 -0.000030 -0.000119 -10.748231 -2.384030 -14.426620 139.999893
[Rope2_Seg07]
14 139.999893 0.000060 -0.000060 -2.917313 0.282166 -5.122745 139.999893
15 139.999893 0.000060 -0.000060 -3.639731 0.021429 -5.766094 139.999893
[Rope2_Seg09]
14 121.338966 0.000089 -0.000060 33.793236 -1.359788 -0.847141 121.338966
15 121.338966 0.000089 -0.000060 33.793236 -1.359788 -0.847141 121.338966
[R_mid_hand01]
14 104.680779 11.144459 -10.335981 -47.384243 2.963521 5.452602 105.778534
15 104.680779 11.144459 -10.335981 -47.384266 2.963523 5.452605 105.778534
[R_mid_hand02]
14 104.070427 2.443552 8.231699 75.626297 -2.250001 1.111093 104.424065
15 104.070427 2.443552 8.231699 75.626297 -2.250002 1.111093 104.424065
[R_mid_hand03]
14 106.028137 -11.221827 -5.996406 -164.381912 2.495983 -6.140520 106.788818
15 106.028137 -11.221827 -5.996406 -164.381912 2.495983 -6.140520 106.788818
[spine02]
14 129.756927 0.001550 0.000119 -2.124576 -3.648843 23.143995 129.756927
15 129.756927 0.001550 0.000119 -2.007121 -3.688155 21.325237 129.756927
[spine03]
14 79.046951 0.011836 -0.670984 3.746633 5.809995 34.249180 79.049797
15 79.041664 0.012746 -0.722598 3.528382 5.609692 31.567703 79.044968
[pelvis]
14 169.435242 0.051022 0.000000 -6.470403 -2.761914 12.514783 169.435257
15 169.435242 0.051022 0.000000 -6.347450 -2.734123 12.255356 169.435257
[null_rope03_connect]
14 -1.257226 -2.466202 137.391083 133.383987 -84.765656 -88.789482 137.418976
15 -1.257226 -2.466202 137.391083 135.348618 -84.749016 -86.497757 137.418976
[null_rope04_connect]
14 -1.259640 -2.480268 -137.844437 133.383987 -84.765656 -88.789482 137.872513
15 -1.259640 -2.480268 -137.844437 135.348618 -84.749016 -86.497757 137.872513
[Rope3_Seg01]
14 0.000048 0.000114 0.000000 -148.775879 54.046268 -92.277031 0.000124
15 0.000048 0.000112 0.000000 -146.053757 50.754391 -90.448364 0.000122
[Rope3_Seg02]
14 139.999924 -0.000119 0.000060 -11.190224 -15.841658 15.196083 139.999924
15 139.999924 -0.000119 0.000060 -11.534895 -15.993077 16.566652 139.999924
[Rope3_Seg03]
14 139.999924 -0.000119 0.000119 -43.173378 -49.049343 47.096275 139.999924
15 139.999924 -0.000119 0.000119 -46.911385 -48.890396 51.580086 139.999924
[Rope3_Seg04]
14 139.999924 0.000119 0.000000 -5.358582 -34.773033 10.529192 139.999924
15 139.999924 0.000119 0.000000 -6.522594 -36.191238 12.005778 139.999924
[Rope3_Seg05]
14 139.999924 -0.000238 0.000060 -10.308682 -65.035652 37.946697 139.999924
15 139.999924 -0.000238 0.000060 -8.496418 -62.661694 34.313202 139.999924
[Rope3_Seg06]
14 139.999893 -0.000119 -0.000060 4.874105 -15.593857 9.143526 139.999893
15 139.999893 -0.000119 -0.000060 4.415740 -14.158121 7.779204 139.999893
[Rope3_Seg07]
14 139.999771 0.000060 -0.000119 2.211220 -4.762407 3.435282 139.999771
15 139.999771 0.000060 -0.000119 2.167684 -4.760683 3.169635 139.999771
[Rope3_Seg08]
14 139.999985 -0.000060 0.000000 1.299587 -2.019698 1.581555 139.999985
15 139.999985 -0.000060 0.000000 1.240390 -1.897817 1.371157 139.999985
[Rope3_Seg09]
14 90.185997 -0.000179 -0.000060 89.793228 -1.359877 -0.847183 90.185997
15 90.185997 -0.000179 -0.000060 89.793228 -1.359877 -0.847183 90.185997
[R_rear_hand01]
14 103.366196 -6.073594 -10.757982 -156.049316 6.070419 -2.795869 104.101845
15 103.366196 -6.073594 -10.757982 -156.049316 6.070419 -2.795869 104.101845
[R_rear_hand02]
14 100.509819 12.039542 -7.992327 -38.708424 1.958050 5.461185 101.543350
15 100.509819 12.039542 -7.992327 -38.708439 1.958052 5.461187 101.543350
[R_rear_hand03]
14 101.539970 5.215704 5.435467 84.307625 -2.361032 4.099037 101.819031
15 101.539970 5.215704 5.435467 84.307632 -2.361033 4.099039 101.819031
[Rope4_Seg01]
14 0.000000 0.000029 -0.000114 82.898911 66.029625 -73.596199 0.000118
15 0.000000 0.000025 -0.000112 82.037872 63.994843 -73.497177 0.000114
[Rope4_Seg02]
14 139.999985 0.000060 0.000119 4.024370 3.088009 -8.313300 139.999985
15 139.999985 0.000060 0.000119 3.991678 2.977261 -7.930617 139.999985
[Rope4_Seg03]
14 139.999924 0.000000 -0.000238 9.672298 10.703332 -43.588791 139.999924
15 139.999924 0.000000 -0.000238 10.234078 10.864212 -44.319019 139.999924
[Rope4_Seg04]
14 139.999985 0.000000 0.000119 -3.816405 1.210764 -58.479233 139.999985
15 139.999985 0.000000 0.000119 -4.463164 0.871713 -61.616543 139.999985
[Rope4_Seg05]
14 139.999802 -0.000060 -0.000119 -25.047558 8.235836 -54.401623 139.999802
15 139.999802 -0.000060 -0.000119 -25.888100 9.223412 -53.637978 139.999802
[Rope4_Seg06]
14 139.999924 0.000000 0.000060 -15.334055 15.543041 -27.664505 139.999924
15 139.999924 0.000000 0.000060 -12.738565 14.154570 -23.393690 139.999924
[Rope4_Seg07]
14 139.999802 0.000000 0.000000 -2.425759 5.427441 -6.118320 139.999802
15 139.999802 0.000000 0.000000 -2.327390 5.135196 -5.834195 139.999802
[Rope4_Seg08]
14 139.999924 0.000000 0.000119 -2.379508 2.466945 -2.573212 139.999924
15 139.999924 0.000000 0.000119 -2.381691 2.393699 -2.522212 139.999924
[Rope4_Seg09]
14 90.185791 0.000060 0.000060 -135.617828 2.228885 0.850567 90.185791
15 90.185791 0.000060 0.000060 -135.617828 2.228885 0.850567 90.185791
[L_rear_hand01]
14 101.696655 -8.392275 -7.654577 -38.746338 0.246096 177.290207 102.329041
15 101.696655 -8.392275 -7.654577 -38.746349 0.246096 177.290207 102.329041
[L_rear_hand02]
14 102.726799 -1.568258 5.773216 84.315140 -1.142796 176.247437 102.900848
15 102.726799 -1.568258 5.773216 84.315163 -1.142796 176.247437 102.900848
[L_rear_hand03]
14 104.552910 9.721220 -10.420293 -155.747955 -4.630845 179.564758 105.519653
15 104.552910 9.721220 -10.420293 -155.747955 -4.630845 179.564758 105.519653
